<?xml version="1.0" standalone="no"?>
<!DOCTYPE svg PUBLIC "-//W3C//DTD SVG 20010904//EN"
 "http://www.w3.org/TR/2001/REC-SVG-20010904/DTD/svg10.dtd">
<svg version="1.0" xmlns="http://www.w3.org/2000/svg"
 width="500.000000pt" height="100.000000pt" viewBox="0 0 500.000000 100.000000"
 preserveAspectRatio="xMidYMid meet">

<g transform="translate(0.000000,100.000000) scale(0.100000,-0.100000)"
fill="#000000" stroke="none">
<path d="M616 868 c-11 -15 -16 -45 -16 -93 0 -79 -12 -161 -40 -285 -42 -186
-46 -328 -8 -351 22 -14 178 -11 180 4 1 6 2 84 3 172 0 93 5 170 12 185 l11
25 10 -25 c29 -73 43 -114 71 -207 21 -69 38 -106 51 -113 27 -14 183 -13 198
2 7 7 12 35 12 62 0 57 39 226 52 226 9 0 8 9 17 -170 l6 -135 98 -3 97 -3 0
47 c0 26 -7 84 -15 128 -8 45 -19 149 -25 231 -6 83 -17 186 -23 230 l-12 80
-101 3 -101 3 -7 -33 c-8 -42 -117 -308 -127 -308 -4 0 -30 69 -58 153 -29 83
-59 162 -67 175 -13 20 -22 22 -109 22 -86 0 -95 -2 -109 -22z"/>
<path d="M1472 818 c-7 -7 -12 -33 -12 -60 0 -63 14 -69 138 -66 l97 3 3 61
c3 57 1 62 -20 68 -42 11 -193 7 -206 -6z"/>
<path d="M3637 823 c-4 -3 -7 -37 -7 -75 l0 -68 -64 0 c-36 0 -76 -4 -91 -10
-24 -9 -26 -14 -23 -62 l3 -53 93 -3 92 -3 0 -32 c0 -17 -5 -93 -11 -169 -14
-174 -12 -184 45 -192 24 -4 68 -4 96 0 l53 7 -8 193 c-7 191 -7 194 13 194
28 0 87 -125 114 -239 11 -47 25 -102 32 -121 l12 -35 104 0 105 0 57 115 c32
63 85 151 118 195 59 78 60 82 58 135 l-3 55 -100 0 -100 0 -8 -30 c-5 -16
-27 -68 -50 -114 l-42 -84 -29 63 c-16 35 -31 85 -34 111 -2 27 -10 53 -17 59
-7 6 -56 13 -108 17 l-96 6 6 46 c2 25 0 58 -6 74 -10 27 -11 27 -104 27 -52
0 -97 -3 -100 -7z"/>
<path d="M1886 628 c-8 -12 -28 -55 -43 -97 -15 -42 -36 -83 -48 -93 -18 -15
-20 -28 -20 -150 l0 -133 99 -3 c73 -2 102 1 108 10 4 7 8 45 8 85 0 78 17
173 30 173 14 0 30 -96 30 -178 0 -42 4 -83 8 -90 6 -9 35 -12 108 -10 l99 3
3 40 c2 22 -3 65 -12 95 -9 30 -28 100 -42 155 -31 114 -65 190 -93 205 -11 5
-65 10 -120 10 -91 0 -101 -2 -115 -22z"/>
<path d="M3023 640 c-60 -14 -144 -53 -153 -71 -13 -23 -13 -95 0 -119 6 -11
28 -24 49 -30 48 -13 87 -42 107 -82 14 -28 14 -32 0 -46 -9 -9 -46 -21 -83
-27 l-68 -11 0 -55 0 -54 110 1 c90 0 121 4 169 23 85 34 96 48 96 125 0 63
-2 67 -47 123 -83 101 -79 93 -62 104 16 10 66 24 122 34 31 5 37 10 37 30 0
14 -9 34 -20 45 -18 18 -33 20 -122 19 -57 -1 -117 -4 -135 -9z"/>
<path d="M2414 576 c-35 -16 -95 -83 -120 -135 -10 -20 -20 -63 -22 -97 -3
-49 -1 -64 14 -79 10 -10 21 -38 24 -63 5 -42 8 -47 40 -55 19 -5 78 -7 130
-4 136 7 281 58 328 115 7 10 12 45 12 87 0 62 -4 77 -32 125 -18 29 -50 67
-71 84 -38 30 -42 31 -155 34 -83 1 -126 -2 -148 -12z m166 -168 c16 -22 30
-47 30 -55 0 -20 -89 -73 -122 -73 -32 0 -33 3 -13 61 14 38 59 109 70 109 3
0 18 -19 35 -42z"/>
<path d="M1487 483 c-2 -4 -8 -68 -12 -141 -5 -98 -4 -136 5 -147 17 -21 172
-21 189 -1 8 9 11 59 9 152 l-3 139 -92 3 c-50 1 -93 -1 -96 -5z"/>
<path d="M3307 284 c-4 -4 -7 -31 -7 -60 0 -66 1 -66 155 -62 l110 3 0 60 0
60 -126 3 c-69 1 -128 -1 -132 -4z"/>
</g>
</svg>
